<svg width="16" height="16" viewBox="0 0 16 16" fill="none" xmlns="http://www.w3.org/2000/svg">
<path d="M13.3334 4.66669H2.66671C1.93033 4.66669 1.33337 5.26364 1.33337 6.00002V12.6667C1.33337 13.4031 1.93033 14 2.66671 14H13.3334C14.0698 14 14.6667 13.4031 14.6667 12.6667V6.00002C14.6667 5.26364 14.0698 4.66669 13.3334 4.66669Z" stroke="#D01818" stroke-width="1.33333" stroke-linecap="round" stroke-linejoin="round"/>
<path d="M10.6667 14V3.33333C10.6667 2.97971 10.5262 2.64057 10.2762 2.39052C10.0261 2.14048 9.687 2 9.33337 2H6.66671C6.31309 2 5.97395 2.14048 5.7239 2.39052C5.47385 2.64057 5.33337 2.97971 5.33337 3.33333V14" stroke="#D01818" stroke-width="1.33333" stroke-linecap="round" stroke-linejoin="round"/>
</svg>
