<svg width="36" height="38" viewBox="0 0 36 38" fill="none" xmlns="http://www.w3.org/2000/svg">
<path d="M21.0001 3.08633H9.00012C8.20447 3.08633 7.44141 3.41151 6.8788 3.99033C6.31619 4.56914 6.00012 5.35418 6.00012 6.17275V30.8641C6.00012 31.6827 6.31619 32.4677 6.8788 33.0465C7.44141 33.6254 8.20447 33.9505 9.00012 33.9505H27.0001C27.7958 33.9505 28.5588 33.6254 29.1214 33.0465C29.684 32.4677 30.0001 31.6827 30.0001 30.8641V12.3456L21.0001 3.08633Z" stroke="#D01818" stroke-width="3.08642" stroke-linecap="round" stroke-linejoin="round"/>
<path d="M21 3.08633V12.3456H30" stroke="#D01818" stroke-width="3.08642" stroke-linecap="round" stroke-linejoin="round"/>
<path d="M24 20.0616H12" stroke="#D01818" stroke-width="3.08642" stroke-linecap="round" stroke-linejoin="round"/>
<path d="M24 26.2345H12" stroke="#D01818" stroke-width="3.08642" stroke-linecap="round" stroke-linejoin="round"/>
<path d="M15 13.8889H13.5H12" stroke="#D01818" stroke-width="3.08642" stroke-linecap="round" stroke-linejoin="round"/>
</svg>
