<?xml version="1.0" standalone="no"?>
<!DOCTYPE svg PUBLIC "-//W3C//DTD SVG 20010904//EN"
 "http://www.w3.org/TR/2001/REC-SVG-20010904/DTD/svg10.dtd">
<svg version="1.0" xmlns="http://www.w3.org/2000/svg"
 width="700.000000pt" height="700.000000pt" viewBox="0 0 700.000000 700.000000"
 preserveAspectRatio="xMidYMid meet">
<metadata>
Created by potrace 1.11, written by Peter Selinger 2001-2013
</metadata>
<g transform="translate(0.000000,700.000000) scale(0.100000,-0.100000)"
fill="#000000" stroke="none">
<path d="M1229 6996 c-2 -2 -29 -7 -59 -10 -324 -39 -674 -240 -879 -504 -144
-186 -245 -423 -278 -652 -10 -70 -11 -4575 -1 -4653 19 -145 67 -296 141
-441 197 -386 598 -669 1027 -724 77 -10 4595 -9 4650 1 25 4 59 10 76 12 17
3 75 18 128 35 458 141 801 498 922 960 14 52 28 120 32 150 4 30 7 1088 7
2350 0 2200 -1 2299 -19 2380 -37 171 -105 340 -190 472 -203 319 -539 542
-912 607 -105 19 -193 19 -2375 20 -1246 1 -2268 -1 -2270 -3z m2906 -900 c39
-4 77 -9 85 -11 8 -3 33 -7 55 -11 137 -20 346 -78 484 -133 30 -12 108 -49
175 -82 665 -333 1123 -954 1251 -1694 27 -160 36 -394 21 -575 -27 -341 -136
-679 -319 -989 -49 -84 -160 -240 -220 -311 -57 -68 -207 -218 -259 -261 -29
-23 -57 -48 -63 -54 -28 -31 -231 -165 -343 -226 -148 -80 -336 -158 -472
-195 -27 -8 -502 -113 -625 -139 -66 -14 -129 -27 -140 -30 -11 -2 -74 -16
-139 -30 -66 -14 -169 -36 -230 -50 -384 -84 -488 -107 -513 -111 -15 -3 -48
-10 -73 -15 -25 -6 -52 -12 -60 -14 -8 -2 -80 -17 -160 -35 -80 -17 -194 -41
-255 -55 -107 -23 -128 -28 -190 -40 -16 -3 -38 -8 -47 -11 -15 -5 -35 -9 -83
-18 -11 -2 -65 -14 -120 -26 -55 -12 -109 -23 -119 -26 -11 -2 -73 -15 -138
-29 -65 -15 -131 -27 -146 -27 -104 -3 -192 98 -176 202 15 94 65 130 224 164
63 14 207 45 320 70 113 24 313 68 445 96 132 29 247 53 255 55 8 2 69 15 135
30 66 14 140 30 165 35 25 5 54 11 65 14 11 2 53 11 94 20 85 18 91 21 59 31
-47 15 -283 127 -343 164 -17 10 -37 17 -45 15 -8 -1 -143 -30 -300 -64 -157
-34 -294 -63 -305 -66 -11 -2 -31 -6 -45 -9 -14 -3 -35 -7 -46 -9 -12 -3 -37
-9 -56 -14 -68 -19 -151 1 -189 44 -98 112 -40 273 108 300 19 3 204 44 253
55 25 6 56 13 70 15 14 3 32 7 40 9 8 3 33 7 55 11 22 3 42 7 44 9 1 2 -35 43
-83 92 -286 295 -485 647 -587 1041 -16 62 -31 125 -33 140 -2 15 -8 47 -12
72 -29 179 -35 351 -21 555 7 103 40 304 57 349 5 14 8 26 6 26 -3 0 6 35 20
78 13 42 24 78 24 80 0 5 -39 -3 -200 -38 -80 -17 -156 -34 -170 -36 -25 -5
-307 -67 -473 -104 -105 -24 -136 -25 -181 -6 -140 58 -144 261 -8 319 20 9
102 30 182 47 80 17 163 35 185 40 50 12 321 71 355 77 14 2 95 20 180 38 85
19 166 36 180 39 115 21 126 26 150 69 64 116 217 320 325 432 30 32 54 59 53
60 -2 2 -64 -10 -138 -26 -74 -16 -166 -36 -205 -44 -38 -8 -99 -21 -135 -29
-118 -26 -206 -45 -230 -50 -14 -2 -56 -12 -94 -21 -38 -9 -88 -18 -110 -19
-126 -10 -221 122 -172 239 34 80 88 107 283 141 15 3 36 7 45 10 9 3 25 7 35
9 10 2 50 10 88 19 39 8 82 17 95 20 14 2 48 10 75 16 28 6 61 14 75 16 14 3
63 14 110 24 47 11 96 21 110 24 14 2 86 18 160 34 74 17 146 33 160 36 14 2
68 14 120 25 52 11 106 22 120 24 14 3 54 12 90 20 57 14 364 81 416 91 10 2
87 18 169 36 184 38 213 43 340 56 33 3 61 7 62 8 6 5 333 -2 398 -8z"/>
<path d="M3760 5219 c-156 -17 -254 -40 -402 -98 -373 -146 -674 -460 -818
-850 -73 -199 -97 -400 -75 -636 18 -207 101 -442 220 -627 233 -359 614 -597
1049 -653 61 -8 273 -9 306 -1 14 3 45 8 70 11 36 4 144 28 215 48 90 26 252
101 347 163 405 261 653 709 662 1193 2 97 -6 180 -29 306 -3 17 -17 69 -30
117 -84 294 -269 558 -524 749 -197 146 -405 231 -681 275 -60 9 -230 11 -310
3z m353 -370 c154 -31 302 -96 427 -189 54 -40 190 -169 190 -179 0 -4 -92
-59 -205 -124 l-204 -118 -53 39 c-87 65 -227 122 -300 122 -16 0 -28 2 -28 4
0 3 -6 36 -14 73 -8 38 -17 80 -20 93 -3 14 -7 35 -10 46 -2 12 -14 66 -26
120 -11 55 -23 107 -26 116 -3 12 2 17 18 20 45 6 155 -4 251 -23z m-589 -179
c15 -69 36 -165 47 -215 29 -133 29 -135 16 -135 -7 0 -38 -20 -70 -45 -62
-49 -133 -135 -171 -206 l-24 -44 -63 3 c-35 2 -71 5 -79 7 -14 4 -34 6 -185
20 -81 8 -139 16 -144 20 -1 2 5 28 14 57 88 266 288 497 539 623 49 24 91 44
92 42 1 -1 13 -58 28 -127z m1411 -564 c60 -207 60 -422 1 -631 -22 -75 -68
-181 -107 -242 -18 -29 -21 -29 -56 5 -17 15 -86 77 -154 137 -181 161 -165
140 -146 194 36 103 47 217 32 326 l-6 40 78 45 c43 24 134 77 203 116 68 40
128 70 132 68 4 -3 15 -29 23 -58z m-935 -77 c55 -25 105 -71 133 -124 16 -30
21 -58 22 -115 0 -94 -30 -158 -99 -211 -59 -45 -101 -58 -174 -54 -78 3 -145
37 -191 95 -140 177 -19 430 204 430 39 0 76 -8 105 -21z m-1040 -324 c30 -3
71 -8 90 -10 19 -2 64 -7 100 -10 36 -3 74 -8 85 -10 11 -2 27 -4 35 -4 10 -1
23 -26 38 -73 24 -80 77 -168 141 -238 22 -25 41 -47 41 -50 0 -9 -180 -414
-188 -422 -11 -11 -132 84 -199 156 -153 163 -268 411 -288 618 l-6 57 48 -4
c26 -3 73 -7 103 -10z m1272 -453 c2 -4 78 -74 171 -156 92 -81 167 -151 167
-155 0 -3 -24 -23 -53 -44 -79 -59 -241 -133 -352 -163 -89 -24 -118 -27 -265
-27 -111 0 -183 4 -221 14 l-55 14 95 217 96 218 80 0 c93 0 175 19 260 60 67
32 72 33 77 22z"/>
</g>
</svg>
